<?xml version="1.0" encoding="UTF-8" standalone="no"?>
<!DOCTYPE svg PUBLIC "-//W3C//DTD SVG 1.1//EN" "http://www.w3.org/Graphics/SVG/1.1/DTD/svg11.dtd">
<svg width="100%" height="100%" viewBox="0 0 40 80" version="1.1" xmlns="http://www.w3.org/2000/svg" xmlns:xlink="http://www.w3.org/1999/xlink" xml:space="preserve" xmlns:serif="http://www.serif.com/" style="fill-rule:evenodd;clip-rule:evenodd;stroke-linejoin:round;stroke-miterlimit:2;">
    <g id="ArtBoard1" transform="matrix(1,0,0,3.33333,0,-76.6667)">
        <rect x="0" y="23" width="40" height="24" style="fill:none;"/>
        <g id="Median" transform="matrix(1,0,0,0.3,-1,24.5)">
            <g transform="matrix(1,0,0,1,1,-5)">
                <circle cx="20" cy="12" r="4" style="fill:white;"/>
            </g>
            <g transform="matrix(1,0,0,1,1,0)">
                <path d="M18.5,13.839C15.356,13.151 13,10.348 13,7C13,3.137 16.137,0 20,0C23.863,0 27,3.137 27,7C27,10.348 24.644,13.151 21.5,13.839L21.5,47L18.5,47L18.5,13.839ZM20,3C22.208,3 24,4.792 24,7C24,9.208 22.208,11 20,11C17.792,11 16,9.208 16,7C16,4.792 17.792,3 20,3Z"/>
            </g>
        </g>
    </g>
</svg>
