<?xml version="1.0" standalone="no"?>
<!DOCTYPE svg PUBLIC "-//W3C//DTD SVG 20010904//EN"
 "http://www.w3.org/TR/2001/REC-SVG-20010904/DTD/svg10.dtd">
<svg version="1.0" xmlns="http://www.w3.org/2000/svg"
 width="800.000000pt" height="800.000000pt" viewBox="0 0 800.000000 800.000000"
 preserveAspectRatio="xMidYMid meet">
<metadata>
Created by potrace 1.11, written by Peter Selinger 2001-2013
</metadata>
<g transform="translate(0.000000,800.000000) scale(0.100000,-0.100000)"
fill="#000000" stroke="none">
<path d="M1620 4605 l0 -1926 828 3 c821 3 827 3 884 25 172 66 291 191 342
362 14 49 16 202 16 1536 0 1327 -2 1487 -16 1536 -49 168 -170 295 -344 362
-54 21 -66 22 -882 25 l-828 3 0 -1926z m1631 1640 c111 -38 167 -127 176
-279 l6 -95 -124 -3 -124 -3 0 -130 0 -130 123 -3 122 -3 -2 -1222 -3 -1222
-30 -60 c-33 -66 -91 -117 -153 -135 -24 -6 -272 -10 -694 -10 l-658 0 0 435
0 435 110 0 110 0 0 135 0 135 -110 0 -110 0 0 1085 0 1085 658 0 c564 0 665
-2 703 -15z"/>
<path d="M2678 5014 c-115 -57 -208 -106 -208 -109 0 -16 112 -225 120 -225 6
0 50 20 99 44 l88 45 279 -530 279 -531 3 281 2 281 -222 425 c-123 234 -225
424 -228 424 -3 0 -98 -47 -212 -105z"/>
<path d="M5275 5125 c-156 -34 -302 -114 -416 -225 -90 -88 -152 -180 -225
-336 -30 -63 -58 -114 -64 -114 -6 0 -59 24 -118 54 l-108 54 -57 -114 c-31
-63 -57 -116 -57 -119 0 -3 52 -31 115 -62 l115 -58 -256 -525 c-140 -289
-259 -528 -263 -533 -4 -4 -41 57 -82 135 l-74 143 -6 -165 c-5 -129 -11 -180
-28 -232 l-21 -67 31 -64 32 -64 -393 -809 c-216 -445 -396 -813 -400 -817 -4
-4 -46 15 -94 43 -48 27 -89 50 -91 50 -4 0 -25 -35 -112 -187 l-24 -41 212
-121 c116 -67 214 -121 218 -121 3 0 334 676 736 1503 1173 2416 1110 2291
1189 2369 69 68 159 123 256 154 46 14 104 18 348 22 l292 4 0 129 0 129 -297
-1 c-206 -1 -316 -5 -358 -14z"/>
<path d="M5332 4649 c-158 -31 -281 -157 -312 -319 -13 -68 -13 -332 0 -401
32 -169 171 -297 348 -320 37 -4 95 -8 130 -9 l62 0 0 -130 0 -130 130 0 130
0 0 130 0 130 40 0 c98 0 212 -74 265 -171 24 -45 30 -69 33 -140 4 -78 2 -92
-23 -148 -47 -104 -137 -171 -256 -191 -40 -6 -360 -10 -854 -10 l-790 -1 -62
-129 -62 -130 515 0 514 0 0 -120 0 -120 135 0 135 0 0 119 0 119 268 4 c299
5 338 12 457 83 331 199 391 652 121 921 -81 80 -135 115 -239 152 -69 24 -83
26 -369 31 l-297 6 -31 30 c-44 42 -53 88 -48 255 4 157 11 179 66 217 24 16
56 18 310 21 l282 3 0 130 0 129 -277 -1 c-153 -1 -297 -5 -321 -10z"/>
</g>
</svg>
