<?xml version="1.0" standalone="no"?>
<!DOCTYPE svg PUBLIC "-//W3C//DTD SVG 20010904//EN"
 "http://www.w3.org/TR/2001/REC-SVG-20010904/DTD/svg10.dtd">
<svg version="1.0" xmlns="http://www.w3.org/2000/svg"
 width="256.000000pt" height="256.000000pt" viewBox="0 0 256.000000 256.000000"
 preserveAspectRatio="xMidYMid meet">
<metadata>
Created by potrace 1.11, written by Peter Selinger 2001-2013
</metadata>
<g transform="translate(0.000000,256.000000) scale(0.100000,-0.100000)"
fill="#000000" stroke="none">
<path d="M220 1435 l0 -876 383 3 c371 3 383 4 423 25 51 27 98 80 115 130 20
56 20 1380 0 1436 -17 50 -64 103 -115 130 -40 21 -52 22 -423 25 l-383 3 0
-876z m745 741 c44 -19 64 -51 72 -115 l6 -51 -57 0 -56 0 0 -60 0 -60 55 0
55 0 -1 -547 c0 -590 -1 -599 -52 -637 -27 -20 -42 -21 -338 -24 l-309 -3 0
201 0 200 50 0 50 0 0 60 0 60 -50 0 -50 0 0 495 0 495 295 0 c232 0 303 -3
330 -14z"/>
<path d="M695 1618 c-44 -22 -82 -42 -84 -44 -5 -4 40 -104 46 -104 2 0 22 9
44 21 23 11 42 19 44 17 1 -2 58 -110 126 -240 l124 -237 3 120 3 121 -102
194 c-57 107 -107 194 -113 194 -6 -1 -47 -19 -91 -42z"/>
<path d="M1880 1669 c-74 -15 -145 -56 -202 -118 -43 -46 -71 -96 -148 -257
-52 -109 -131 -275 -175 -368 l-82 -169 -39 69 -39 69 -6 -110 c-5 -83 -3
-117 7 -136 12 -23 11 -30 -9 -56 -32 -43 -78 -80 -134 -106 -47 -21 -59 -22
-440 -25 l-393 -3 0 -105 0 -104 60 0 60 0 0 45 0 45 98 1 c53 0 212 4 352 8
l255 7 68 32 c43 20 87 51 123 86 49 50 70 85 188 329 72 149 170 353 216 452
138 291 159 305 467 305 l193 0 0 60 0 60 -187 -1 c-104 -1 -208 -5 -233 -10z"/>
<path d="M1890 1448 c-52 -15 -86 -43 -110 -93 -19 -39 -21 -58 -18 -148 3
-92 6 -108 30 -144 32 -48 81 -73 159 -80 l59 -6 0 -58 0 -59 55 0 55 0 0 60
c0 59 0 60 29 60 32 0 85 -33 114 -71 13 -19 19 -43 19 -79 0 -59 -18 -91 -72
-127 -33 -23 -35 -23 -416 -23 l-384 0 -30 -60 -30 -60 235 0 235 0 0 -55 0
-55 55 0 55 0 0 54 0 53 133 5 c156 5 199 20 264 91 42 45 73 121 73 177 0 55
-31 132 -71 175 -67 72 -111 88 -263 92 -72 2 -141 6 -153 8 -53 11 -60 193
-9 227 6 4 98 8 204 8 l192 0 0 60 0 60 -187 -1 c-104 0 -204 -5 -223 -11z"/>
</g>
</svg>
