<?xml version="1.0" standalone="no"?>
<!DOCTYPE svg PUBLIC "-//W3C//DTD SVG 20010904//EN"
 "http://www.w3.org/TR/2001/REC-SVG-20010904/DTD/svg10.dtd">
<svg version="1.0" xmlns="http://www.w3.org/2000/svg"
 width="1024.000000pt" height="1024.000000pt" viewBox="0 0 1024.000000 1024.000000"
 preserveAspectRatio="xMidYMid meet">
<metadata>
Created by potrace 1.11, written by Peter Selinger 2001-2013
</metadata>
<g transform="translate(0.000000,1024.000000) scale(0.100000,-0.100000)"
fill="#000000" stroke="none">
<path d="M750 5740 l0 -3500 1478 2 1477 3 76 22 c186 53 337 142 460 270 120
125 201 274 246 449 17 65 18 223 18 2754 0 2531 -1 2689 -18 2754 -92 359
-344 616 -706 719 l-76 22 -1477 3 -1478 2 0 -3500z m2944 2997 c147 -51 259
-162 309 -305 16 -45 21 -93 25 -224 l4 -168 -221 0 -221 0 0 -240 0 -240 220
0 220 0 -2 -2227 -3 -2228 -21 -57 c-54 -145 -164 -254 -310 -305 -45 -16
-144 -18 -1256 -20 l-1208 -4 0 801 0 800 200 0 200 0 0 240 0 240 -200 0
-200 0 0 1980 0 1981 1208 -4 c1112 -2 1211 -4 1256 -20z"/>
<path d="M2665 6483 c-203 -102 -371 -186 -373 -188 -2 -2 44 -98 102 -214
l106 -211 171 85 c93 47 174 83 178 81 5 -3 239 -446 522 -985 l514 -979 3
502 2 501 -417 797 c-230 439 -422 797 -428 797 -5 0 -176 -84 -380 -186z"/>
<path d="M7600 6709 c-401 -29 -792 -223 -1047 -519 -143 -166 -161 -201 -884
-1706 -380 -792 -693 -1442 -697 -1446 -4 -4 -74 122 -157 279 l-150 286 -6
-279 c-7 -297 -15 -369 -54 -492 l-25 -78 65 -124 c36 -67 65 -127 65 -133 0
-5 -20 -39 -44 -76 -212 -317 -545 -517 -926 -556 -52 -5 -1840 -23 -2570 -26
-190 -1 -362 -4 -382 -6 l-38 -5 0 -414 0 -414 240 0 240 0 0 185 0 185 308 0
c169 0 737 5 1262 10 987 11 1055 14 1225 56 248 62 495 185 690 344 171 140
334 344 439 549 30 58 406 839 835 1734 430 896 803 1661 828 1700 108 168
315 334 507 408 177 69 178 69 1009 69 l747 0 0 240 0 240 -687 -1 c-379 -1
-735 -5 -793 -10z"/>
<path d="M7595 5833 c-328 -27 -587 -244 -660 -555 -21 -91 -21 -705 0 -796
63 -266 269 -472 537 -537 39 -10 137 -18 256 -22 l192 -6 0 -239 0 -238 235
0 235 0 0 240 0 240 56 0 c240 0 484 -199 548 -446 9 -35 16 -102 16 -154 0
-175 -55 -306 -179 -430 -75 -74 -137 -113 -241 -149 -40 -14 -211 -17 -1563
-21 l-1517 -5 -115 -235 -114 -235 940 -3 939 -2 0 -220 0 -220 235 0 235 0 0
219 0 219 453 5 c477 6 517 9 667 58 280 92 535 330 649 603 62 149 76 225 76
411 0 130 -4 188 -18 245 -94 388 -389 693 -769 795 -133 36 -271 45 -721 45
-438 0 -439 0 -506 63 -69 65 -71 77 -71 417 0 340 2 352 71 417 70 66 31 63
864 63 l755 0 0 240 0 240 -722 -2 c-398 -1 -741 -3 -763 -5z"/>
</g>
</svg>
